<svg width="63" height="20" viewBox="0 0 63 20" fill="none" xmlns="http://www.w3.org/2000/svg">
<path d="M56.0717 12.0687C54.0206 9.14773 51.695 5.83691 46.9901 5.83691C42.2863 5.83691 39.9606 9.14876 37.9086 12.0697C36.0351 14.7379 34.4165 17.0421 31.2528 17.0421C28.088 17.0421 26.4694 14.7369 24.5939 12.0687C22.5428 9.14773 20.2172 5.83691 15.5134 5.83691C10.8095 5.83691 8.48388 9.14876 6.43181 12.0697C4.60374 14.673 3.0172 16.9297 0 17.037V19.9961C4.55316 19.8919 6.83748 16.643 8.85549 13.7684C10.73 11.1002 12.3485 8.79499 15.5134 8.79499C18.6782 8.79499 20.2967 11.0991 22.1712 13.7674C24.2223 16.6894 26.5479 20.0002 31.2528 20.0002C35.9566 20.0002 38.2822 16.6894 40.3333 13.7684C42.2078 11.1002 43.8263 8.79499 46.9912 8.79499C50.156 8.79499 51.7745 11.1002 53.649 13.7684C55.7001 16.6894 58.0257 20.0002 62.7295 20.0002C62.8059 20.0002 62.8792 19.9971 62.9546 19.995V17.0359C62.8802 17.039 62.8059 17.0411 62.7295 17.0411C59.5637 17.0421 57.9462 14.7369 56.0717 12.0687Z" fill="#ED6A53"/>
<path d="M54.5956 16.044C54.4769 15.8913 54.3602 15.7376 54.2446 15.584C54.2044 15.5293 54.1641 15.4746 54.1239 15.42C53.7925 14.9713 53.4777 14.5247 53.1763 14.0946C53.0493 13.9141 52.9244 13.7367 52.8005 13.5624C51.3141 15.5427 49.7679 17.0424 47.2152 17.0424C44.5303 17.0424 42.9582 15.3839 41.3985 13.252C41.2024 13.5263 41.0032 13.8089 40.7999 14.0977C40.4086 14.6547 40.0123 15.2188 39.5942 15.7706C41.3604 18.0201 43.5755 20.0004 47.2141 20.0004C50.2695 20.0004 52.3206 18.6029 53.9453 16.8237V20.0004H56.9067V18.4863C56.8789 18.4636 56.851 18.442 56.8231 18.4193C55.987 17.7179 55.2562 16.8908 54.5956 16.044Z" fill="#ED6A53"/>
<path d="M56.9098 8.3121V0H53.9483V8.41524C54.4541 8.94848 54.9176 9.51781 55.3521 10.0913C55.5524 10.3563 55.7464 10.6214 55.9353 10.8844C56.0179 10.9999 56.0995 11.1134 56.18 11.2279C56.3028 11.4012 56.4236 11.5734 56.5433 11.7426C56.6517 11.8962 56.758 12.0479 56.8643 12.1984C56.8798 12.2201 56.8953 12.2428 56.9108 12.2644V12.2634C56.9872 12.3717 57.0636 12.48 57.14 12.5862C58.6986 10.4543 60.2707 8.79583 62.9545 8.79583V5.8357C60.313 5.8357 58.423 6.87948 56.9098 8.3121Z" fill="#ED6A53"/>
<path d="M21.3249 13.5605C19.8385 15.5408 18.2922 17.0404 15.7395 17.0404C13.0547 17.0404 11.4826 15.3819 9.92392 13.25C9.7278 13.5244 9.52858 13.807 9.32523 14.0958C9.24884 14.2051 9.17039 14.3165 9.09195 14.4279C9.02692 14.5207 8.95982 14.6145 8.89273 14.7094C8.85144 14.7672 8.81118 14.8239 8.76989 14.8817C8.68525 15.0003 8.59854 15.1199 8.5108 15.2396C8.49016 15.2685 8.46951 15.2963 8.44887 15.3252C7.77069 16.2493 7.01923 17.1858 6.14906 17.9976V19.9985H9.11053V16.9321C10.7198 18.6587 12.7481 19.9985 15.7405 19.9985C19.2233 19.9985 21.4013 18.1832 23.1313 16.0554C22.6183 15.3974 22.1465 14.727 21.7016 14.0927C21.5736 13.9132 21.4487 13.7358 21.3249 13.5605Z" fill="#ED6A53"/>
<path d="M31.4767 5.83594C27.8381 5.83594 25.623 7.81727 23.8568 10.0668C24.2852 10.6309 24.6836 11.1992 25.0635 11.7397C25.1626 11.88 25.2596 12.0182 25.3567 12.1554C25.3649 12.1667 25.3732 12.1791 25.3814 12.1904C25.4671 12.3121 25.5528 12.4318 25.6374 12.5504C25.6457 12.5617 25.6539 12.5731 25.6612 12.5844C26.137 13.2487 26.5995 13.8634 27.0815 14.3966H33.3306V11.4385H26.5509C27.8516 9.8873 29.2977 8.79504 31.4767 8.79504C34.0294 8.79504 35.5767 10.2947 37.0632 12.275C37.187 12.0997 37.313 11.9212 37.4399 11.7397C37.8993 11.0858 38.3658 10.4216 38.8675 9.77797C37.1375 7.65121 34.9595 5.83594 31.4767 5.83594Z" fill="#ED6A53"/>
<path d="M9.10937 7.86241V0H6.1479V11.4754C7.03046 10.2202 7.95327 8.94538 9.10937 7.86241Z" fill="#ED6A53"/>
</svg>
