<svg display="none" xmlns="http://www.w3.org/2000/svg">



    <!-- icons for top nav -->
    <symbol id="info" viewBox="0 0 30 30">
        <path fill-rule="evenodd" clip-rule="evenodd" d="M29.6667 14.9997C29.6667 23.0998 23.1002 29.6663 15 29.6663C6.89986 29.6663 0.333374 23.0998 0.333374 14.9997C0.333374 6.8995 6.89986 0.333008 15 0.333008C23.1002 0.333008 29.6667 6.8995 29.6667 14.9997ZM16.6297 8.48116C16.6297 9.38118 15.9001 10.1108 15 10.1108C14.1 10.1108 13.3704 9.38118 13.3704 8.48116C13.3704 7.58114 14.1 6.85153 15 6.85153C15.9001 6.85153 16.6297 7.58114 16.6297 8.48116ZM16 23.1478V13.37H14V23.1478H16Z" fill="#0E0E0E"/>
    </symbol>

    <symbol id="bell" viewBox="0 0 32 32">
        <path d="M24 10.667C24 8.54526 23.1571 6.51043 21.6569 5.01014C20.1566 3.50985 18.1217 2.66699 16 2.66699C13.8783 2.66699 11.8434 3.50985 10.3431 5.01014C8.84286 6.51043 8 8.54526 8 10.667C8 20.0003 4 22.667 4 22.667H28C28 22.667 24 20.0003 24 10.667Z" stroke="#0E0E0E" stroke-width="2" stroke-linecap="round" stroke-linejoin="round"/>
        <path d="M18.3067 28C18.0723 28.4041 17.7358 28.7395 17.331 28.9727C16.9262 29.2059 16.4672 29.3286 16 29.3286C15.5329 29.3286 15.0739 29.2059 14.6691 28.9727C14.2642 28.7395 13.9278 28.4041 13.6934 28" stroke="#0E0E0E" stroke-width="2" stroke-linecap="round" stroke-linejoin="round"/>
    </symbol>
    
    <symbol id="vk" viewBox="0 0 32 32">
        <path d="M0 15.36C0 8.1192 0 4.49884 2.24942 2.24942C4.49884 0 8.1192 0 15.36 0H16.64C23.8808 0 27.5011 0 29.7506 2.24942C32 4.49884 32 8.1192 32 15.36V16.64C32 23.8808 32 27.5011 29.7506 29.7506C27.5011 32 23.8808 32 16.64 32H15.36C8.1192 32 4.49884 32 2.24942 29.7506C0 27.5011 0 23.8808 0 16.64V15.36Z" fill="#0E0E0E"/>
        <path d="M16.9717 23.0396C9.53717 23.0396 5.29668 17.9946 5.12 9.59961H8.84407C8.96639 15.7613 11.7118 18.3713 13.8864 18.9094V9.59961H17.3932V14.9137C19.5407 14.685 21.7966 12.2634 22.5577 9.59961H26.0644C25.4799 12.8823 23.0335 15.3039 21.2938 16.2994C23.0335 17.1066 25.8199 19.2188 26.88 23.0396H23.0199C22.1908 20.4835 20.1251 18.5058 17.3932 18.2367V23.0396H16.9717Z" fill="white"/>
    </symbol>

    <symbol id="user" viewBox="0 0 32 32">
        <path fill-rule="evenodd" clip-rule="evenodd" d="M0 16C0 24.832 7.168 32 16 32C24.832 32 32 24.832 32 16C32 7.168 24.832 0 16 0C7.168 0 0 7.168 0 16ZM20.7999 9.6C20.7999 12.256 18.6559 14.4 15.9999 14.4C13.3439 14.4 11.1999 12.256 11.1999 9.6C11.1999 6.944 13.3439 4.8 15.9999 4.8C18.6559 4.8 20.7999 6.944 20.7999 9.6ZM6.3999 22.3678C6.4479 19.1838 12.7999 17.4398 15.9999 17.4398C19.1839 17.4398 25.5519 19.1838 25.5999 22.3678C23.5359 25.4718 19.9999 27.5198 15.9999 27.5198C11.9999 27.5198 8.4639 25.4718 6.3999 22.3678Z" fill="#0E0E0E"/>
    </symbol>
    <!-- icons for top nav  // -->




    <!-- icons for general menu -->
    <symbol id="home" viewBox="0 0 24 25" >
        <path d="M9.99778 19.8279V14.8279H13.9978V19.8279C13.9978 20.3779 14.4478 20.8279 14.9978 20.8279H17.9978C18.5478 20.8279 18.9978 20.3779 18.9978 19.8279V12.8279H20.6978C21.1578 12.8279 21.3778 12.2579 21.0278 11.9579L12.6678 4.42785C12.2878 4.08785 11.7078 4.08785 11.3278 4.42785L2.96778 11.9579C2.62778 12.2579 2.83778 12.8279 3.29778 12.8279H4.99778V19.8279C4.99778 20.3779 5.44778 20.8279 5.99778 20.8279H8.99778C9.54778 20.8279 9.99778 20.3779 9.99778 19.8279Z"/>
    </symbol>

    <symbol id="star" viewBox="0 0 22 21">
        <path fill-rule="evenodd" clip-rule="evenodd" d="M12.6498 1.76975C11.8554 0.610605 10.1447 0.610604 9.3503 1.76975L7.17005 4.951C6.90999 5.33047 6.52706 5.60868 6.08581 5.73875L2.38652 6.82923C1.03862 7.22657 0.51 8.8535 1.36692 9.96723L3.71874 13.0238C3.99927 13.3884 4.14553 13.8386 4.13288 14.2984L4.02685 18.1536C3.98822 19.5584 5.37217 20.5639 6.69619 20.093L10.3299 18.8009C10.7634 18.6467 11.2367 18.6467 11.6701 18.8009L15.3039 20.093C16.6279 20.5639 18.0119 19.5584 17.9732 18.1536L17.8672 14.2984C17.8546 13.8386 18.0008 13.3884 18.2813 13.0238L20.6332 9.96723C21.4901 8.8535 20.9615 7.22657 19.6136 6.82923L15.9143 5.73875C15.473 5.60868 15.0901 5.33047 14.83 4.951L12.6498 1.76975ZM9.00004 11.6249C9.00004 11.3487 8.77618 11.1249 8.50004 11.1249C8.2239 11.1249 8.00004 11.3487 8.00004 11.6249V13.6249C8.00004 13.901 8.2239 14.1249 8.50004 14.1249C8.77618 14.1249 9.00004 13.901 9.00004 13.6249V11.6249ZM13.5 9.62487C13.7762 9.62487 14 9.84872 14 10.1249V13.6249C14 13.901 13.7762 14.1249 13.5 14.1249C13.2239 14.1249 13 13.901 13 13.6249V10.1249C13 9.84872 13.2239 9.62487 13.5 9.62487ZM11.5 8.12487C11.5 7.84872 11.2762 7.62487 11 7.62487C10.7239 7.62487 10.5 7.84872 10.5 8.12487L10.5 13.6248C10.5 13.9009 10.7239 14.1248 11 14.1248C11.2762 14.1248 11.5 13.9009 11.5 13.6248L11.5 8.12487Z"/>
    </symbol>

    <symbol id="blank" viewBox="0 0 16 21">
        <path fill-rule="evenodd" clip-rule="evenodd" d="M9.9975 2.40004C9.98607 2.17155 9.9355 1.94645 9.84776 1.73463C9.74725 1.49198 9.59993 1.2715 9.41421 1.08579C9.2285 0.900069 9.00802 0.75275 8.76537 0.652241C8.52272 0.551732 8.26264 0.5 8 0.5C7.73736 0.5 7.47728 0.551732 7.23463 0.652241C6.99198 0.75275 6.7715 0.900069 6.58579 1.08579C6.40007 1.2715 6.25275 1.49198 6.15224 1.73463C6.0645 1.94645 6.01393 2.17155 6.0025 2.40004C5.99974 2.4552 5.95523 2.5 5.9 2.5L5 2.5C4.44772 2.5 4 2.94772 4 3.5V4.5C4 5.05228 4.44772 5.5 5 5.5H11C11.5523 5.5 12 5.05228 12 4.5V3.5C12 2.94772 11.5523 2.5 11 2.5H10.1C10.0448 2.5 10.0003 2.4552 9.9975 2.40004ZM2.9 3C2.95523 3 3 3.04477 3 3.1V5C3 5.82843 3.67157 6.5 4.5 6.5H11.5C12.3284 6.5 13 5.82843 13 5V3.1C13 3.04477 13.0448 3 13.1 3H14.5C15.3284 3 16 3.67157 16 4.5V19C16 19.8284 15.3284 20.5 14.5 20.5H1.5C0.671573 20.5 0 19.8284 0 19V4.5C0 3.67157 0.671573 3 1.5 3H2.9ZM4.5 10C4.22386 10 4 10.2239 4 10.5C4 10.7761 4.22386 11 4.5 11H11.5C11.7761 11 12 10.7761 12 10.5C12 10.2239 11.7761 10 11.5 10H4.5ZM4 14.5C4 14.2239 4.22386 14 4.5 14H11.5C11.7761 14 12 14.2239 12 14.5C12 14.7761 11.7761 15 11.5 15H4.5C4.22386 15 4 14.7761 4 14.5Z"/>
    </symbol>

    <symbol id="dialog" viewBox="0 0 20 19">
        <path fill-rule="evenodd" clip-rule="evenodd" d="M20 9.5C20 14.4706 15.5228 18.5 10 18.5C8.13085 18.5 6.38147 18.0385 4.88489 17.2351L1.14808e-05 18L0.693402 12.7995C0.245853 11.7779 0 10.6648 0 9.5C0 4.52944 4.47715 0.5 10 0.5C15.5228 0.5 20 4.52944 20 9.5ZM14.5 10.5C14.9176 10.5 15.2562 10.1614 15.2562 9.74376C15.2562 9.32612 14.9176 8.98755 14.5 8.98755C14.0824 8.98755 13.7438 9.32612 13.7438 9.74376C13.7438 10.1614 14.0824 10.5 14.5 10.5ZM10.7563 9.74376C10.7563 10.1614 10.4177 10.5 10 10.5C9.5824 10.5 9.24384 10.1614 9.24384 9.74376C9.24384 9.32612 9.5824 8.98755 10 8.98755C10.4177 8.98755 10.7563 9.32612 10.7563 9.74376ZM5.49997 10.5C5.91762 10.5 6.25619 10.1614 6.25619 9.74376C6.25619 9.32612 5.91762 8.98755 5.49997 8.98755C5.08233 8.98755 4.74376 9.32612 4.74376 9.74376C4.74376 10.1614 5.08233 10.5 5.49997 10.5Z"/>
    </symbol>

    <symbol id="support" viewBox="0 0 18 23">
        <path d="M9 21.5C9 21.5 17 17.5 17 11.5V4.5L9 1.5L1 4.5V11.5C1 17.5 9 21.5 9 21.5Z" stroke="white" stroke-width="2" stroke-linecap="round" stroke-linejoin="round" fill="transparent"/>
    </symbol>
    <!-- icons for general menu // -->



</svg>