<svg width="111" height="35" viewBox="0 0 111 35" fill="none" xmlns="http://www.w3.org/2000/svg">
<path d="M98.1232 21.1192C94.534 16.0077 90.4643 10.2139 82.2309 10.2139C73.9993 10.2139 69.9296 16.0095 66.3385 21.121C63.06 25.7903 60.2276 29.8225 54.6911 29.8225C49.1528 29.8225 46.3205 25.7885 43.0383 21.1192C39.4491 16.0077 35.3794 10.2139 27.1478 10.2139C18.9162 10.2139 14.8465 16.0095 11.2554 21.121C8.05636 25.6766 5.27999 29.6258 0 29.8135V34.9918C7.96785 34.8095 11.9653 29.124 15.4968 24.0937C18.7771 19.4244 21.6095 15.3904 27.1478 15.3904C32.6861 15.3904 35.5184 19.4226 38.7988 24.0919C42.388 29.2052 46.4578 34.999 54.6911 34.999C62.9227 34.999 66.9924 29.2052 70.5817 24.0937C73.862 19.4244 76.6944 15.3904 82.2327 15.3904C87.771 15.3904 90.6034 19.4244 93.8837 24.0937C97.473 29.2052 101.543 34.999 109.774 34.999C109.908 34.999 110.036 34.9936 110.168 34.99V29.8117C110.038 29.8171 109.908 29.8207 109.774 29.8207C104.234 29.8225 101.404 25.7885 98.1232 21.1192Z" fill="white"/>
<path d="M95.5409 28.0773C95.3332 27.8102 95.129 27.5413 94.9267 27.2723C94.8563 27.1767 94.7858 27.081 94.7154 26.9854C94.1355 26.2002 93.5846 25.4187 93.0571 24.666C92.835 24.3502 92.6164 24.0397 92.3996 23.7347C89.7985 27.2001 87.0925 29.8245 82.6254 29.8245C77.9271 29.8245 75.176 26.9222 72.4466 23.1914C72.1034 23.6715 71.7547 24.1661 71.3989 24.6714C70.7143 25.6461 70.0206 26.6334 69.2891 27.599C72.3797 31.5356 76.2562 35.001 82.6236 35.001C87.9704 35.001 91.5597 32.5553 94.4029 29.4418V35.001H99.5853V32.3514C99.5366 32.3117 99.4878 32.2738 99.439 32.2341C97.9759 31.0067 96.697 29.5592 95.5409 28.0773Z" fill="white"/>
<path d="M99.5896 14.5459V0H94.4072V14.7263C95.2923 15.6595 96.1033 16.6558 96.8638 17.6593C97.2142 18.1232 97.5538 18.5871 97.8844 19.0473C98.0289 19.2495 98.1716 19.448 98.3125 19.6484C98.5275 19.9516 98.7388 20.253 98.9484 20.549C99.138 20.818 99.3241 21.0833 99.5101 21.3468C99.5372 21.3847 99.5643 21.4244 99.5914 21.4623V21.4605C99.7251 21.65 99.8588 21.8395 99.9924 22.0254C102.72 18.2947 105.471 15.3924 110.168 15.3924V10.2122C105.545 10.2122 102.238 12.0388 99.5896 14.5459Z" fill="white"/>
<path d="M37.3178 23.7298C34.7167 27.1953 32.0108 29.8196 27.5436 29.8196C22.8453 29.8196 20.0942 26.9173 17.3666 23.1865C17.0234 23.6666 16.6748 24.1612 16.3189 24.6666C16.1852 24.8579 16.048 25.0528 15.9107 25.2477C15.7969 25.4102 15.6795 25.5744 15.562 25.7405C15.4898 25.8416 15.4193 25.9408 15.3471 26.0419C15.199 26.2495 15.0472 26.4588 14.8937 26.6682C14.8576 26.7188 14.8214 26.7675 14.7853 26.818C13.5985 28.4352 12.2835 30.0741 10.7607 31.4946V34.9961H15.9432V29.6301C18.7593 32.6515 22.3088 34.9961 27.5454 34.9961C33.6401 34.9961 37.4515 31.8195 40.479 28.0959C39.5812 26.9444 38.7557 25.7712 37.9772 24.6611C37.7532 24.3471 37.5346 24.0366 37.3178 23.7298Z" fill="white"/>
<path d="M55.0836 10.2129C48.7162 10.2129 44.8397 13.6801 41.749 17.6167C42.4987 18.604 43.1959 19.5985 43.8607 20.5443C44.0341 20.7897 44.2039 21.0316 44.3737 21.2716C44.3881 21.2915 44.4026 21.3132 44.417 21.333C44.5669 21.546 44.7169 21.7554 44.865 21.9629C44.8794 21.9828 44.8939 22.0026 44.9065 22.0225C45.7393 23.1849 46.5485 24.2606 47.3921 25.1937H58.3278V20.0172H46.4636C48.7396 17.3026 51.2703 15.3912 55.0836 15.3912C59.5507 15.3912 62.2584 18.0156 64.8596 21.481C65.0763 21.1742 65.2967 20.8619 65.5189 20.5443C66.3227 19.3999 67.1392 18.2376 68.0171 17.1113C64.9896 13.3896 61.1782 10.2129 55.0836 10.2129Z" fill="white"/>
<path d="M15.9412 13.7589V0H10.7588V20.0815C12.3032 17.885 13.9181 15.6541 15.9412 13.7589Z" fill="white"/>
</svg>
