<svg width="132" height="42" viewBox="0 0 132 42" fill="none" xmlns="http://www.w3.org/2000/svg">
<path d="M117.568 25.3047C113.268 19.1802 108.392 12.2383 98.5266 12.2383C88.6637 12.2383 83.7875 19.1824 79.4848 25.3069C75.5566 30.9015 72.1629 35.7328 65.5293 35.7328C58.8934 35.7328 55.4998 30.8994 51.5672 25.3047C47.2667 19.1802 42.3905 12.2383 32.5276 12.2383C22.6648 12.2383 17.7886 19.1824 13.4859 25.3069C9.65289 30.7653 6.32632 35.4971 0 35.722V41.9265C9.54684 41.708 14.3365 34.8959 18.5677 28.8687C22.4982 23.274 25.8918 18.4406 32.5276 18.4406C39.1635 18.4406 42.5571 23.2719 46.4875 28.8665C50.788 34.9932 55.6643 41.9351 65.5293 41.9351C75.3921 41.9351 80.2683 34.9932 84.5688 28.8687C88.4992 23.274 91.8929 18.4406 98.5287 18.4406C105.165 18.4406 108.558 23.274 112.489 28.8687C116.789 34.9932 121.665 41.9351 131.528 41.9351C131.688 41.9351 131.842 41.9286 132 41.9243V35.7198C131.844 35.7263 131.688 35.7306 131.528 35.7306C124.89 35.7328 121.499 30.8994 117.568 25.3047Z" fill="#0E0E0E"/>
<path d="M114.474 33.6393C114.225 33.3193 113.98 32.997 113.738 32.6748C113.653 32.5602 113.569 32.4456 113.485 32.3309C112.79 31.3902 112.13 30.4538 111.498 29.552C111.232 29.1735 110.97 28.8016 110.71 28.4361C107.593 32.5883 104.351 35.7327 98.9987 35.7327C93.3693 35.7327 90.0731 32.2553 86.8028 27.7852C86.3916 28.3604 85.9738 28.953 85.5475 29.5585C84.7272 30.7263 83.8961 31.9092 83.0195 33.0662C86.7227 37.7829 91.3673 41.9351 98.9966 41.9351C105.403 41.9351 109.703 39.0047 113.11 35.2742V41.9351H119.32V38.7604C119.261 38.7128 119.203 38.6674 119.144 38.6198C117.391 37.1492 115.859 35.4148 114.474 33.6393Z" fill="#0E0E0E"/>
<path d="M119.325 17.4284V0H113.115V17.6447C114.176 18.7627 115.148 19.9565 116.059 21.1589C116.479 21.7147 116.885 22.2705 117.282 22.8219C117.455 23.0641 117.626 23.302 117.795 23.5421C118.052 23.9054 118.305 24.2665 118.556 24.6212C118.784 24.9434 119.007 25.2613 119.229 25.5771C119.262 25.6225 119.294 25.6701 119.327 25.7155V25.7133C119.487 25.9404 119.647 26.1675 119.807 26.3902C123.075 21.9201 126.372 18.4427 131.999 18.4427V12.236C126.46 12.236 122.498 14.4245 119.325 17.4284Z" fill="#0E0E0E"/>
<path d="M44.7125 28.4322C41.5958 32.5844 38.3537 35.7288 33.0013 35.7288C27.3719 35.7288 24.0756 32.2513 20.8075 27.7812C20.3963 28.3565 19.9786 28.9491 19.5522 29.5546C19.392 29.7838 19.2276 30.0174 19.0631 30.2509C18.9267 30.4456 18.786 30.6424 18.6454 30.8413C18.5588 30.9624 18.4744 31.0814 18.3878 31.2025C18.2103 31.4512 18.0285 31.702 17.8446 31.9529C17.8013 32.0135 17.758 32.0718 17.7147 32.1324C16.2927 34.0701 14.7171 36.0337 12.8926 37.7357V41.9311H19.102V35.5017C22.4762 39.1219 26.7291 41.9311 33.0035 41.9311C40.3059 41.9311 44.8726 38.125 48.5 33.6635C47.4244 32.2838 46.4353 30.8781 45.5025 29.5481C45.2341 29.1718 44.9722 28.7998 44.7125 28.4322Z" fill="#0E0E0E"/>
<path d="M66.0005 12.2344C58.3712 12.2344 53.7266 16.3887 50.0234 21.1054C50.9216 22.2883 51.7571 23.4799 52.5535 24.6131C52.7613 24.9072 52.9648 25.197 53.1682 25.4846C53.1855 25.5084 53.2028 25.5344 53.2201 25.5582C53.3998 25.8133 53.5794 26.0642 53.7569 26.3129C53.7742 26.3367 53.7915 26.3605 53.8067 26.3843C54.8044 27.777 55.774 29.0659 56.7848 30.184H69.8876V23.9816H55.6723C58.3994 20.7291 61.4316 18.4389 66.0005 18.4389C71.3529 18.4389 74.5972 21.5833 77.7138 25.7355C77.9735 25.3678 78.2376 24.9937 78.5038 24.6131C79.4669 23.242 80.4452 21.8493 81.4971 20.4998C77.8696 16.0406 73.3029 12.2344 66.0005 12.2344Z" fill="#0E0E0E"/>
<path d="M19.1001 16.4855V0H12.8906V24.0611C14.7411 21.4292 16.676 18.7562 19.1001 16.4855Z" fill="#0E0E0E"/>
</svg>
