<svg width="22" height="21" viewBox="0 0 22 21" fill="none" xmlns="http://www.w3.org/2000/svg">
<path fill-rule="evenodd" clip-rule="evenodd" d="M12.6498 1.76975C11.8554 0.610605 10.1447 0.610604 9.3503 1.76975L7.17005 4.951C6.90999 5.33047 6.52706 5.60868 6.08581 5.73875L2.38652 6.82923C1.03862 7.22657 0.51 8.8535 1.36692 9.96723L3.71874 13.0238C3.99927 13.3884 4.14553 13.8386 4.13288 14.2984L4.02685 18.1536C3.98822 19.5584 5.37217 20.5639 6.69619 20.093L10.3299 18.8009C10.7634 18.6467 11.2367 18.6467 11.6701 18.8009L15.3039 20.093C16.6279 20.5639 18.0119 19.5584 17.9732 18.1536L17.8672 14.2984C17.8546 13.8386 18.0008 13.3884 18.2813 13.0238L20.6332 9.96723C21.4901 8.8535 20.9615 7.22657 19.6136 6.82923L15.9143 5.73875C15.473 5.60868 15.0901 5.33047 14.83 4.951L12.6498 1.76975ZM9.00004 11.6249C9.00004 11.3487 8.77618 11.1249 8.50004 11.1249C8.2239 11.1249 8.00004 11.3487 8.00004 11.6249V13.6249C8.00004 13.901 8.2239 14.1249 8.50004 14.1249C8.77618 14.1249 9.00004 13.901 9.00004 13.6249V11.6249ZM13.5 9.62487C13.7762 9.62487 14 9.84872 14 10.1249V13.6249C14 13.901 13.7762 14.1249 13.5 14.1249C13.2239 14.1249 13 13.901 13 13.6249V10.1249C13 9.84872 13.2239 9.62487 13.5 9.62487ZM11.5 8.12487C11.5 7.84872 11.2762 7.62487 11 7.62487C10.7239 7.62487 10.5 7.84872 10.5 8.12487L10.5 13.6248C10.5 13.9009 10.7239 14.1248 11 14.1248C11.2762 14.1248 11.5 13.9009 11.5 13.6248L11.5 8.12487Z" fill="white"/>
</svg>
