<svg width="32" height="32" viewBox="0 0 32 32" fill="none" xmlns="http://www.w3.org/2000/svg">
<path d="M0 15.36C0 8.1192 0 4.49884 2.24942 2.24942C4.49884 0 8.1192 0 15.36 0H16.64C23.8808 0 27.5011 0 29.7506 2.24942C32 4.49884 32 8.1192 32 15.36V16.64C32 23.8808 32 27.5011 29.7506 29.7506C27.5011 32 23.8808 32 16.64 32H15.36C8.1192 32 4.49884 32 2.24942 29.7506C0 27.5011 0 23.8808 0 16.64V15.36Z" fill="#0E0E0E"/>
<path d="M16.9717 23.04C9.53717 23.04 5.29668 17.995 5.12 9.60001H8.84407C8.96639 15.7617 11.7118 18.3717 13.8864 18.9098V9.60001H17.3932V14.9141C19.5407 14.6854 21.7966 12.2638 22.5577 9.60001H26.0644C25.4799 12.8826 23.0335 15.3043 21.2938 16.2998C23.0335 17.107 25.8199 19.2192 26.88 23.04H23.0199C22.1908 20.4839 20.1251 18.5062 17.3932 18.2371V23.04H16.9717Z" fill="white"/>
</svg>
